<?xml version="1.0" standalone="no"?>
<!DOCTYPE svg PUBLIC "-//W3C//DTD SVG 20010904//EN"
 "http://www.w3.org/TR/2001/REC-SVG-20010904/DTD/svg10.dtd">
<svg version="1.0" xmlns="http://www.w3.org/2000/svg"
 width="1280.000000pt" height="800.000000pt" viewBox="0 0 1280.000000 800.000000"
 preserveAspectRatio="xMidYMid meet">

<g transform="translate(0.000000,800.000000) scale(0.100000,-0.100000)"
fill="#000000" stroke="none">
<path d="M963 6323 l-283 -3 0 -2320 0 -2320 2330 0 2330 0 0 2325 0 2325
-2047 -2 c-1127 -2 -2175 -4 -2330 -5z m1791 -418 c-94 -23 -126 -27 -119 -16
3 6 21 11 40 11 19 0 37 5 40 10 3 6 25 10 48 9 l42 -1 -51 -13z m511 -25
c113 -13 255 -42 255 -52 0 -4 -12 -5 -27 -3 -123 22 -335 45 -418 45 -289 0
-575 -74 -904 -233 -321 -155 -632 -465 -790 -787 -23 -47 -48 -92 -55 -100
-7 -8 -18 -28 -25 -45 -8 -16 -16 -25 -18 -19 -4 11 117 232 189 346 17 26 26
53 22 59 -4 8 -3 9 4 5 7 -4 34 26 68 76 81 116 258 290 374 367 243 161 591
292 890 335 115 17 313 19 435 6z m-826 -54 c-3 -3 -188 -81 -269 -113 -10 -4
-12 -3 -5 5 9 9 164 77 230 100 32 11 51 15 44 8z m-565 -67 c-3 -5 -10 -7
-15 -3 -5 3 -7 10 -3 15 3 5 10 7 15 3 5 -3 7 -10 3 -15z m1879 -53 c134 -51
234 -113 382 -235 128 -106 314 -301 286 -301 -6 0 -11 3 -11 8 0 9 -50 61
-131 137 -196 184 -386 318 -530 376 -30 11 -65 26 -79 32 -14 5 -29 9 -34 8
-13 -3 -56 20 -56 30 0 8 49 -8 173 -55z m-323 19 c163 -39 206 -54 337 -120
149 -75 272 -163 397 -287 50 -48 96 -90 103 -92 7 -3 13 -16 13 -29 0 -14 31
-64 75 -123 130 -171 257 -458 307 -693 30 -146 27 -372 -7 -506 -14 -55 -23
-80 -20 -55 3 25 10 86 16 135 16 142 0 359 -40 535 -14 61 -84 247 -122 323
-117 233 -316 476 -507 619 -217 164 -405 250 -602 278 -30 4 -66 11 -80 14
-82 20 -472 -3 -580 -34 -19 -5 -42 -10 -50 -9 -8 0 8 7 35 15 189 56 554 70
725 29z m-1281 -19 c-10 -9 -69 -36 -69 -32 0 7 52 35 64 36 5 0 7 -2 5 -4z
m489 -31 c-8 -8 -68 -25 -68 -19 0 6 41 23 59 23 8 1 12 -1 9 -4z m-568 -10
c0 -2 -27 -20 -61 -40 -183 -107 -382 -303 -553 -545 -10 -14 -16 -19 -15 -13
11 38 149 212 244 308 117 119 192 179 307 251 74 45 78 47 78 39z m815 -15
c-3 -5 -21 -10 -38 -9 -31 1 -31 1 -7 9 36 11 52 11 45 0z m108 3 c-18 -2 -48
-2 -65 0 -18 2 -4 4 32 4 36 0 50 -2 33 -4z m216 -8 c7 -8 -68 -4 -124 5 -41
7 -34 8 34 4 47 -2 87 -7 90 -9z m-674 -5 c-27 -12 -43 -12 -25 0 8 5 22 9 30
9 10 0 8 -3 -5 -9z m228 -7 c-7 -2 -19 -2 -25 0 -7 3 -2 5 12 5 14 0 19 -2 13
-5z m490 0 c-7 -2 -19 -2 -25 0 -7 3 -2 5 12 5 14 0 19 -2 13 -5z m-540 -10
c-7 -2 -21 -2 -30 0 -10 3 -4 5 12 5 17 0 24 -2 18 -5z m610 0 c-7 -2 -19 -2
-25 0 -7 3 -2 5 12 5 14 0 19 -2 13 -5z m-670 -10 c-7 -2 -19 -2 -25 0 -7 3
-2 5 12 5 14 0 19 -2 13 -5z m720 0 c-7 -2 -19 -2 -25 0 -7 3 -2 5 12 5 14 0
19 -2 13 -5z m-943 -7 c0 -3 -25 -14 -56 -25 -76 -29 -308 -146 -362 -183 -24
-16 -45 -28 -47 -26 -14 14 218 142 367 204 82 33 98 38 98 30z m177 -2 c-3
-3 -12 -4 -19 -1 -8 3 -5 6 6 6 11 1 17 -2 13 -5z m817 -3 c4 -5 -3 -7 -14 -4
-23 6 -26 13 -6 13 8 0 17 -4 20 -9z m-854 -5 c0 -2 -11 -6 -25 -8 -13 -3 -22
-1 -19 3 5 9 44 13 44 5z m890 -6 c0 -5 -2 -10 -4 -10 -3 0 -8 5 -11 10 -3 6
-1 10 4 10 6 0 11 -4 11 -10z m-834 -65 c1 -8 -3 -13 -9 -12 -19 3 -27 21 -14
29 13 8 20 3 23 -17z m1020 0 c17 -13 16 -14 -13 -4 -34 11 -42 19 -20 19 7 0
22 -7 33 -15z m-1939 -37 c-3 -8 -6 -5 -6 6 -1 11 2 17 5 13 3 -3 4 -12 1 -19z
m1123 12 c0 -5 -4 -10 -9 -10 -6 0 -13 5 -16 10 -3 6 1 10 9 10 9 0 16 -4 16
-10z m893 -9 c47 -20 202 -118 252 -158 230 -188 462 -526 540 -788 14 -49 31
-98 36 -109 6 -10 12 -102 14 -205 l3 -186 -7 156 c-5 86 -10 160 -13 165 -3
5 -9 30 -12 55 -15 110 -107 332 -194 469 -168 263 -360 449 -594 575 -88 48
-98 57 -25 26z m-1138 -51 c-3 -5 -12 -10 -20 -10 -8 0 -17 5 -20 10 -4 6 5
10 20 10 15 0 24 -4 20 -10z m-98 -16 c-3 -3 -12 -4 -19 -1 -8 3 -5 6 6 6 11
1 17 -2 13 -5z m-42 -13 c-6 -5 -19 -11 -30 -13 -11 -2 -19 -9 -18 -16 2 -6
-4 -9 -12 -6 -8 3 -62 -20 -121 -51 -58 -31 -108 -54 -111 -52 -2 3 35 27 83
53 120 65 239 114 209 85z m-245 -10 c0 -6 -4 -13 -10 -16 -5 -3 -10 1 -10 9
0 9 5 16 10 16 6 0 10 -4 10 -9z m545 -1 c4 -6 -5 -10 -20 -10 -14 0 -33 -4
-43 -10 -9 -5 -69 -23 -132 -40 -181 -49 -360 -146 -525 -287 -39 -32 -78 -62
-88 -66 -9 -3 -17 -16 -17 -27 0 -11 -6 -20 -12 -20 -28 -1 -120 -163 -171
-299 -36 -97 -39 -115 -40 -213 -1 -58 -5 -109 -9 -113 -13 -13 -21 68 -15
149 l6 81 -26 -54 c-23 -47 -26 -68 -28 -170 -1 -66 1 -103 5 -86 4 17 8 47 9
68 0 20 5 37 10 37 4 0 2 -37 -6 -82 -15 -93 -10 -166 18 -274 37 -143 131
-332 150 -302 6 10 12 8 23 -7 9 -11 15 -27 16 -35 0 -9 -3 -11 -8 -5 -4 6
-14 11 -23 11 -13 1 -11 -6 9 -37 14 -22 28 -39 32 -39 4 0 21 -20 39 -45 18
-25 37 -45 42 -45 6 0 -7 21 -27 48 -64 79 -62 79 22 4 118 -107 138 -116 60
-29 -37 42 -72 75 -76 72 -5 -3 -12 0 -16 6 -4 7 -3 9 4 5 5 -3 12 -1 14 5 2
6 24 -11 48 -38 55 -60 70 -70 63 -43 -5 20 -98 110 -113 110 -8 0 -113 147
-133 188 -8 15 -17 43 -20 62 l-7 35 24 -40 c67 -114 132 -205 148 -205 14 0
3 21 -43 82 -78 106 -104 157 -134 271 -20 73 -25 116 -25 210 0 64 4 125 9
135 6 9 15 51 21 92 27 194 37 230 83 298 24 37 56 90 72 117 70 124 384 388
457 384 7 0 2 -5 -11 -10 -44 -17 -121 -73 -111 -79 5 -3 -20 -32 -57 -64 -78
-67 -149 -147 -182 -206 -12 -22 -20 -40 -18 -40 3 0 28 30 55 68 28 37 99
115 159 173 94 93 121 113 208 156 104 52 202 89 212 80 3 -4 -44 -30 -104
-60 -156 -76 -244 -138 -354 -247 -155 -154 -230 -282 -276 -470 -49 -202 -39
-435 24 -527 25 -37 30 -67 11 -61 -18 6 -65 149 -79 239 -13 87 -4 281 16
320 8 15 10 31 5 39 -8 12 -10 12 -14 0 -30 -97 -35 -280 -11 -408 19 -98 118
-379 150 -425 21 -30 18 -13 -5 33 -28 55 -25 221 6 310 10 28 24 -12 18 -51
-9 -53 32 -244 67 -313 16 -33 27 -61 24 -64 -9 -10 -65 124 -82 198 -10 43
-19 66 -21 53 -6 -40 28 -146 68 -217 22 -38 40 -73 40 -77 0 -5 5 -9 10 -9 7
0 8 6 2 17 -5 9 -8 32 -5 52 2 20 -3 58 -11 86 -9 27 -12 53 -7 58 4 4 11 -7
14 -26 3 -19 15 -58 27 -86 18 -40 25 -49 36 -40 10 8 15 1 25 -33 7 -24 14
-50 17 -58 2 -8 7 -49 10 -90 l7 -75 5 104 c4 75 9 106 18 109 11 3 13 -17 9
-106 -4 -104 1 -132 25 -132 4 0 8 185 8 411 0 229 4 417 9 427 6 11 11 -4 15
-54 4 -38 12 -86 18 -108 11 -35 13 -37 22 -17 12 28 26 27 26 -2 0 -13 3 -26
6 -30 4 -3 6 -52 5 -108 -2 -69 1 -99 8 -94 6 3 11 -1 11 -9 0 -8 7 -19 17
-24 14 -8 16 -27 14 -136 -2 -109 0 -126 13 -126 14 0 16 -18 17 -117 1 -90 3
-109 10 -78 4 22 8 76 9 120 0 44 3 105 7 135 6 49 8 52 14 25 4 -16 7 -70 8
-119 0 -49 4 -87 7 -83 3 3 5 120 5 259 -1 249 4 342 19 333 12 -8 23 -163 22
-324 0 -99 3 -150 9 -144 5 5 12 127 15 279 3 148 10 287 14 309 l8 40 2 -50
c1 -27 3 -135 5 -240 2 -129 6 -190 14 -193 6 -2 8 -14 5 -27 -13 -53 77 -123
226 -175 65 -23 109 -49 60 -35 -72 19 -181 70 -228 105 l-52 40 0 -33 c0 -17
-3 -48 -6 -68 -6 -34 -4 -37 42 -66 27 -16 65 -36 84 -43 19 -8 47 -22 63 -32
15 -11 27 -15 27 -10 0 6 -7 12 -15 16 -8 3 -15 11 -14 18 0 10 2 10 6 1 6
-17 71 -33 163 -42 58 -6 92 -4 150 11 133 32 315 141 421 252 95 100 101 119
8 30 -94 -90 -190 -164 -260 -200 -65 -32 -193 -64 -253 -63 -28 1 -40 3 -26
5 82 12 201 40 235 55 44 19 94 55 63 45 -25 -7 -22 1 3 15 15 8 19 8 15 0
-12 -19 10 -12 30 10 10 11 46 40 79 64 67 47 218 202 210 215 -2 4 5 16 16
26 35 31 104 134 143 211 36 73 77 202 75 238 -1 14 -4 11 -9 -10 -8 -29 -9
-28 -8 10 0 82 -4 77 -17 -15 -23 -169 -58 -249 -177 -400 -139 -179 -195
-234 -293 -289 -22 -12 -30 -15 -18 -6 35 26 67 55 61 55 -3 0 -31 -16 -63
-35 -72 -43 -192 -83 -270 -90 -56 -4 -57 -4 -20 6 22 5 69 17 104 25 85 20
199 77 265 134 99 83 277 311 328 419 17 36 35 69 40 72 16 10 37 170 40 304
2 73 5 132 7 130 2 -2 7 -19 12 -37 6 -24 7 -16 4 32 -5 67 -24 169 -51 275
-9 32 -22 96 -29 141 -9 54 -23 99 -41 130 -47 80 -41 92 22 46 74 -54 175
-175 239 -287 16 -27 33 -56 39 -63 11 -15 56 -123 56 -135 0 -5 14 -42 30
-84 26 -64 30 -89 32 -174 1 -54 3 -99 5 -99 2 0 7 10 12 22 6 17 11 4 20 -57
6 -44 16 -84 21 -89 6 -6 10 -63 10 -127 0 -107 8 -144 27 -125 3 3 8 54 11
114 5 119 -4 226 -19 216 -6 -3 -7 10 -4 33 7 42 -5 84 -60 216 -49 119 -40
146 13 37 67 -136 104 -283 107 -420 1 -63 -1 -99 -4 -80 -6 29 -8 20 -15 -49
-4 -46 -11 -94 -16 -106 -4 -12 -11 -48 -15 -81 -5 -49 -4 -56 6 -39 13 19 13
19 20 -5 4 -14 7 -51 8 -82 1 -60 16 -79 24 -30 2 15 6 -2 8 -38 2 -36 6 13 9
108 3 104 9 172 15 173 6 0 13 -10 16 -23 3 -15 12 -22 22 -20 15 3 17 -11 19
-120 l1 -123 7 93 c10 136 24 126 17 -13 -3 -66 -1 -129 4 -140 7 -16 8 -14 8
15 -1 19 0 40 1 45 3 18 19 -29 19 -58 1 -16 5 -26 10 -23 5 4 12 0 15 -6 3
-7 4 0 0 16 -7 40 6 176 18 176 5 0 15 -14 22 -32 l14 -32 13 44 c7 25 18 50
24 55 21 19 44 91 71 220 24 116 26 145 21 265 -8 195 -53 373 -138 543 -16
33 -28 62 -25 64 14 14 111 -209 145 -337 43 -158 53 -405 26 -599 -15 -105
-44 -225 -52 -217 -3 2 0 21 6 43 14 47 44 254 38 259 -2 3 -10 -24 -17 -58
-17 -90 -37 -148 -77 -230 l-35 -73 8 -90 c5 -49 8 -121 8 -160 l-1 -70 12 63
c22 114 35 99 37 -43 1 -72 3 -110 5 -86 3 33 14 57 44 94 42 54 53 51 16 -4
-20 -30 -23 -44 -19 -101 4 -58 7 -68 26 -74 27 -8 66 -44 66 -60 0 -7 6 -14
12 -16 14 -5 13 -53 -2 -109 -13 -47 -48 -78 -112 -100 -29 -10 -50 -18 -45
-19 14 0 -32 -78 -59 -99 -15 -12 -39 -21 -54 -21 -15 0 -33 -7 -40 -15 -7 -8
-21 -15 -31 -15 -10 0 -40 -7 -66 -17 -44 -15 -164 -16 -1328 -17 l-1280 -1
-3 -32 c-2 -18 -6 -34 -10 -34 -12 -2 -45 -7 -87 -13 -40 -6 -40 -6 6 8 60 17
66 21 71 48 4 23 4 23 -106 22 l-111 -2 -47 48 c-45 44 -48 51 -48 99 l0 51
-54 0 c-116 0 -196 61 -196 150 0 34 30 99 54 119 9 8 16 22 16 33 0 40 60
117 115 146 19 10 20 23 24 199 2 103 2 258 0 343 -8 301 -4 441 15 525 25
112 56 218 67 230 6 5 3 -10 -5 -33 -48 -134 -69 -388 -50 -597 7 -82 13 -158
14 -168 0 -10 5 -15 10 -12 6 3 10 1 10 -4 0 -6 6 -11 14 -11 19 0 26 -32 26
-121 0 -42 3 -104 6 -138 l7 -62 17 26 c10 15 21 27 26 28 5 1 9 19 8 40 -1
37 0 38 17 20 15 -15 17 -25 9 -59 -5 -22 -6 -53 -1 -70 l8 -29 8 28 c4 15 5
43 3 62 -2 19 0 35 4 35 4 0 8 23 8 51 0 42 -7 65 -38 118 -43 74 -53 100 -78
186 -36 131 -44 174 -49 275 -5 115 -2 108 35 -95 25 -133 44 -193 101 -324
l24 -55 5 35 c4 25 -3 53 -27 107 -49 110 -71 209 -78 362 -6 137 6 275 26
295 7 7 8 -2 2 -30 -10 -48 -11 -258 -1 -370 8 -106 30 -180 84 -287 24 -48
41 -88 37 -88 -4 0 -2 -5 5 -12 7 -7 12 -40 12 -80 0 -39 4 -68 10 -68 6 0 10
5 10 10 0 6 5 10 10 10 6 0 10 -40 11 -97 1 -142 17 -174 18 -38 1 104 -1 113
-25 149 -15 21 -22 36 -16 32 11 -6 22 58 14 87 -3 14 -7 15 -18 6 -16 -13
-18 -1 -5 20 6 9 2 25 -10 45 -10 17 -19 38 -18 46 0 8 16 -16 34 -54 19 -37
39 -74 45 -81 6 -7 10 -17 8 -21 -5 -20 15 -54 47 -79 34 -25 51 -21 20 5 -8
7 -15 21 -15 32 0 11 -11 34 -24 51 -27 36 -86 167 -86 190 0 9 -6 22 -13 29
-7 7 -21 47 -31 88 -26 105 -30 112 -34 57 -2 -27 1 -54 7 -61 5 -6 14 -30 20
-51 5 -22 13 -51 17 -65 5 -20 2 -18 -18 11 -36 52 -46 111 -53 314 -12 335
35 520 186 735 93 134 186 215 344 302 239 132 354 176 505 193 58 7 108 13
112 14 4 0 10 -3 13 -9z m593 -36 c140 -46 216 -104 293 -222 26 -40 55 -96
65 -125 9 -28 31 -79 49 -112 17 -33 38 -76 45 -95 8 -19 25 -53 38 -74 18
-29 25 -57 27 -105 2 -36 7 -115 10 -176 13 -209 -21 -348 -128 -518 -33 -53
-48 -57 -22 -7 9 18 15 33 13 35 -2 2 -16 -20 -31 -49 -15 -28 -52 -83 -81
-121 -30 -39 -64 -82 -76 -98 -20 -25 -140 -117 -154 -117 -3 0 -6 6 -6 13 0
9 -22 2 -68 -20 -101 -50 -228 -70 -351 -55 -51 7 -101 17 -110 23 -12 8 -8 9
19 5 130 -19 164 -17 284 13 66 17 124 27 129 24 6 -4 7 -1 2 7 -6 9 -1 10 16
5 19 -5 21 -4 9 5 -12 9 -12 10 5 6 29 -8 82 28 176 119 110 107 171 189 224
300 68 144 80 203 80 395 0 267 -4 319 -31 378 -13 29 -24 60 -24 70 0 21 -20
54 -20 34 0 -7 -4 -10 -10 -7 -10 6 -24 -38 -22 -70 2 -29 55 -189 66 -196 5
-4 6 -11 3 -15 -3 -5 1 -45 9 -89 43 -235 -4 -436 -144 -623 -105 -140 -214
-233 -339 -289 -79 -34 -240 -51 -331 -34 -37 7 -73 13 -80 13 -7 1 -9 5 -4
10 5 5 36 4 73 -4 129 -25 263 -6 379 52 64 32 67 35 48 46 -7 5 -8 3 -3 -6 6
-10 4 -12 -8 -7 -10 3 -17 2 -17 -3 0 -6 -8 -10 -18 -10 -11 0 -45 -9 -78 -21
-50 -17 -75 -20 -169 -16 -121 5 -192 22 -281 64 -58 28 -76 54 -41 61 12 2
17 -3 17 -18 0 -16 4 -20 15 -16 8 3 30 -3 47 -14 53 -30 154 -60 200 -59 l43
1 -35 9 c-66 18 -120 41 -120 51 0 6 8 8 18 5 141 -45 199 -47 306 -12 184 60
308 156 393 304 73 128 91 279 58 485 -9 54 -13 101 -10 104 22 22 44 -100 47
-258 2 -135 0 -151 -26 -225 -15 -44 -47 -113 -71 -152 -25 -40 -43 -73 -40
-73 2 0 23 28 46 61 86 127 135 300 125 446 -6 95 -26 205 -53 283 -8 25 -17
52 -20 60 -3 8 -14 -11 -25 -43 -36 -110 -98 -188 -204 -257 -90 -59 -173 -83
-284 -84 -148 0 -258 45 -368 149 -188 177 -221 444 -80 655 129 193 383 279
606 204z m-1736 -19 c0 -5 -5 -11 -11 -13 -6 -2 -11 4 -11 13 0 9 5 15 11 13
6 -2 11 -8 11 -13z m423 -95 c3 -5 1 -10 -4 -10 -6 0 -11 5 -11 10 0 6 2 10 4
10 3 0 8 -4 11 -10z m-245 -53 c0 -2 -17 -19 -37 -38 l-38 -34 34 38 c33 34
41 42 41 34z m2288 -38 c-2 -6 -8 -10 -13 -10 -5 0 -11 4 -13 10 -2 6 4 11 13
11 9 0 15 -5 13 -11z m412 -44 l25 -30 -33 29 c-17 17 -32 34 -32 40 0 6 3 6
8 1 4 -6 18 -23 32 -40z m-2770 2 c0 -2 -10 -12 -22 -23 l-23 -19 19 23 c18
21 26 27 26 19z m180 -27 c0 -5 -4 -10 -9 -10 -6 0 -13 5 -16 10 -3 6 1 10 9
10 9 0 16 -4 16 -10z m-220 -24 c0 -2 -8 -10 -17 -17 -16 -13 -17 -12 -4 4 13
16 21 21 21 13z m2894 -62 c27 -36 46 -67 43 -70 -2 -3 -14 10 -26 29 -11 18
-30 42 -42 53 -25 22 -43 54 -31 54 4 0 30 -29 56 -66z m-3207 -111 c-93 -187
-106 -210 -107 -196 0 17 164 333 173 333 1 0 -28 -62 -66 -137z m973 55 c0
-4 6 -8 14 -8 11 0 11 -6 -2 -35 -16 -35 -32 -46 -32 -22 0 8 -10 19 -22 25
-18 8 -19 11 -5 11 10 1 17 9 17 19 0 10 7 19 15 19 8 0 15 -4 15 -9z m1840
-19 c0 -5 -7 -9 -15 -9 -15 0 -20 12 -9 23 8 8 24 -1 24 -14z m-2700 -59 c0
-5 -5 -10 -11 -10 -5 0 -7 5 -4 10 3 6 8 10 11 10 2 0 4 -4 4 -10z m3241 -87
c110 -199 206 -468 197 -556 -2 -23 -8 -8 -21 57 -32 153 -114 364 -207 527
-21 38 -35 69 -31 69 4 0 32 -44 62 -97z m-3270 -29 c-12 -15 -21 -34 -22 -43
0 -9 -3 -11 -5 -5 -3 6 5 33 17 60 15 33 24 43 26 32 3 -10 -5 -30 -16 -44z
m2689 16 c0 -5 -2 -10 -4 -10 -3 0 -8 5 -11 10 -3 6 -1 10 4 10 6 0 11 -4 11
-10z m-2894 -126 c-4 -9 -9 -15 -11 -12 -3 3 -3 13 1 22 4 9 9 15 11 12 3 -3
3 -13 -1 -22z m3 -78 c-23 -53 -44 -94 -47 -91 -3 2 6 28 18 57 13 29 31 73
42 97 10 24 21 41 24 38 3 -3 -13 -48 -37 -101z m353 33 c-11 -25 -23 -59 -27
-77 -3 -17 -11 -34 -16 -37 -5 -4 -7 0 -5 7 55 173 57 179 63 162 2 -6 -5 -31
-15 -55z m2576 36 c-3 -3 -9 2 -12 12 -6 14 -5 15 5 6 7 -7 10 -15 7 -18z
m-2724 -6 c-3 -5 -10 -7 -15 -3 -5 3 -7 10 -3 15 3 5 10 7 15 3 5 -3 7 -10 3
-15z m826 11 c0 -5 -4 -10 -10 -10 -5 0 -10 5 -10 10 0 6 5 10 10 10 6 0 10
-4 10 -10z m-1066 -69 c-9 -23 -18 -40 -21 -38 -2 3 4 23 13 46 9 23 18 40 21
38 2 -3 -4 -23 -13 -46z m561 -3 c-7 -33 -34 -90 -35 -75 0 13 32 107 37 107
2 0 1 -15 -2 -32z m-429 -127 c-9 -39 -17 -83 -17 -98 -1 -19 -3 -22 -6 -9 -6
22 28 207 35 188 2 -6 -3 -43 -12 -81z m3084 59 c0 -5 -4 -10 -10 -10 -5 0
-10 5 -10 10 0 6 5 10 10 10 6 0 10 -4 10 -10z m-3255 -52 c-5 -25 -4 -29 4
-18 15 21 14 10 -5 -41 -8 -24 -23 -96 -34 -159 l-18 -115 -1 67 c-1 58 32
269 45 290 11 18 15 6 9 -24z m3310 -127 c7 -12 -12 -24 -25 -16 -11 7 -4 25
10 25 5 0 11 -4 15 -9z m-3168 -43 c-3 -7 -5 -2 -5 12 0 14 2 19 5 13 2 -7 2
-19 0 -25z m366 -133 c4 -34 3 -42 -3 -25 -8 25 -13 87 -6 79 2 -2 6 -26 9
-54z m2871 -44 c-3 -45 -9 -80 -11 -77 -3 3 -2 41 2 86 4 45 9 79 12 76 2 -2
1 -41 -3 -85z m-3245 -43 c0 -49 -3 -65 -8 -48 -4 14 -6 45 -5 70 3 54 3 50 9
50 3 0 5 -33 4 -72z m2301 52 c0 -5 -7 -10 -15 -10 -8 0 -15 5 -15 10 0 6 7
10 15 10 8 0 15 -4 15 -10z m-2493 -22 c-3 -8 -6 -5 -6 6 -1 11 2 17 5 13 3
-3 4 -12 1 -19z m1388 -27 c3 -5 1 -12 -5 -16 -5 -3 -10 1 -10 9 0 18 6 21 15
7z m2021 -140 c-9 -43 -23 -94 -31 -113 -18 -38 -18 -38 14 100 28 119 40 130
17 13z m-3439 -203 c-1 -51 -3 -12 -3 87 0 99 2 141 3 93 2 -48 2 -129 0 -180z
m231 187 c0 -29 0 -29 -8 -5 -4 14 -8 39 -8 55 0 29 0 29 8 5 4 -14 8 -38 8
-55z m3252 45 c0 -5 -5 -10 -11 -10 -5 0 -7 5 -4 10 3 6 8 10 11 10 2 0 4 -4
4 -10z m-3190 -95 c1 -33 5 -80 10 -105 10 -56 5 -65 -9 -14 -15 60 -25 212
-12 194 6 -8 11 -42 11 -75z m1088 29 c-4 -3 -12 5 -18 18 -12 22 -12 22 6 6
10 -10 15 -20 12 -24z m-1141 -46 c-3 -7 -5 -2 -5 12 0 14 2 19 5 13 2 -7 2
-19 0 -25z m32 -113 l0 -20 -8 20 c-5 11 -11 38 -14 60 l-6 40 14 -40 c7 -22
14 -49 14 -60z m-203 -38 c9 -18 22 -39 29 -47 7 -8 18 -31 24 -50 13 -42 71
-144 77 -137 3 2 0 17 -6 32 -17 44 -3 41 18 -3 11 -23 29 -57 42 -76 30 -49
17 -46 -16 4 -41 62 -41 38 0 -30 19 -34 31 -58 25 -55 -33 21 -217 372 -224
428 l-5 42 10 -38 c5 -21 17 -52 26 -70z m653 47 c12 -19 16 -32 11 -29 -11 7
-43 65 -36 65 2 0 13 -16 25 -36z m2717 1 c-8 -23 -25 -9 -19 16 4 13 9 17 16
10 5 -5 7 -17 3 -26z m-2021 -45 l20 -25 -22 19 c-13 11 -23 24 -23 29 0 6 1
8 3 6 1 -2 11 -15 22 -29z m-604 -77 c13 -16 12 -17 -3 -4 -10 7 -18 15 -18
17 0 8 8 3 21 -13z m1430 -67 c-15 -18 -126 -56 -160 -55 -16 0 -6 6 27 15 29
7 72 23 95 34 51 23 53 24 38 6z m1443 -37 c-3 -5 -10 -7 -15 -3 -5 3 -7 10
-3 15 3 5 10 7 15 3 5 -3 7 -10 3 -15z m-1656 -26 c-10 -2 -26 -2 -35 0 -10 3
-2 5 17 5 19 0 27 -2 18 -5z m1687 -68 c-15 -25 -29 -44 -32 -42 -5 5 50 96
55 92 2 -2 -8 -24 -23 -50z m-1488 1 c-22 -17 -152 -53 -224 -62 -29 -3 -87
-3 -130 2 l-78 8 150 7 c126 6 161 11 220 33 81 29 87 30 62 12z m-548 -10 c9
-11 9 -16 -1 -22 -7 -4 -10 -4 -6 1 4 4 0 14 -10 21 -9 7 -12 14 -6 14 6 0 17
-6 23 -14z m81 -26 c20 -6 21 -8 5 -8 -11 0 -29 3 -40 8 -25 11 1 11 35 0z
m-1622 -52 c-6 -18 -28 -21 -28 -4 0 9 7 16 16 16 9 0 14 -5 12 -12z m3518
-125 c-6 -15 -9 -15 -16 -3 -6 9 -5 17 3 22 16 10 21 2 13 -19z m-3551 -125
c-28 -60 -31 -105 -10 -162 12 -35 12 -38 -2 -23 -18 18 -28 100 -19 150 6 30
39 87 51 87 2 0 -7 -24 -20 -52z m73 -253 c23 -15 30 -25 20 -25 -17 0 -81 49
-65 50 4 0 25 -11 45 -25z m3447 -5 c-3 -5 -16 -10 -28 -9 -20 1 -20 2 3 9 14
4 26 8 28 9 2 1 0 -3 -3 -9z m-3327 -37 c-10 -2 -28 -2 -40 0 -13 2 -5 4 17 4
22 1 32 -1 23 -4z m22 -88 c32 -60 54 -85 101 -120 79 -58 147 -90 243 -115
129 -33 151 -27 107 29 -42 55 -47 71 -7 25 25 -29 42 -41 58 -39 13 1 15 0 6
-2 -10 -2 -18 -7 -18 -10 0 -3 23 -25 50 -50 28 -25 48 -48 45 -51 -3 -3 -22
11 -43 31 -33 33 -44 37 -88 37 -164 0 -434 147 -477 259 -40 107 -34 109 23
6z m3113 -36 c-21 -35 -83 -88 -133 -114 -41 -20 -35 -14 44 45 32 25 68 57
79 72 27 37 33 36 10 -3z m-254 -61 c-23 -46 -60 -88 -77 -88 -9 0 -34 -20
-55 -45 -21 -24 -57 -59 -80 -76 -31 -24 -23 -12 33 47 41 43 80 80 85 83 6 2
30 25 55 51 52 56 55 58 39 28z m289 0 c-3 -7 -66 -45 -141 -86 -109 -58 -140
-71 -154 -63 -15 9 -16 10 -2 11 9 0 48 16 87 35 40 19 88 41 107 49 19 8 35
21 35 29 0 14 34 35 58 36 8 1 12 -5 10 -11z m-728 -42 c-14 -14 -24 0 -16 21
6 15 8 15 16 3 6 -9 5 -19 0 -24z m500 10 c0 -11 -19 -15 -25 -6 -3 5 1 10 9
10 9 0 16 -2 16 -4z m-2388 -28 c-7 -7 -12 -8 -12 -2 0 6 3 14 7 17 3 4 9 5
12 2 2 -3 -1 -11 -7 -17z m430 -3 c17 -38 -2 -72 -47 -81 -32 -6 -35 -9 -35
-40 0 -36 -15 -46 -24 -16 -3 9 -5 50 -4 90 l2 72 48 0 c42 0 50 -3 60 -25z
m145 -17 c-1 -18 2 -58 6 -88 8 -54 8 -55 -10 -33 -20 24 -54 18 -71 -14 -10
-17 -11 -17 -18 0 -9 23 12 116 32 145 8 12 26 22 39 22 20 0 23 -5 22 -32z
m159 24 c35 -24 17 -84 -32 -102 -17 -7 -24 -17 -24 -36 0 -16 -5 -24 -12 -21
-9 2 -12 24 -11 68 1 35 2 72 3 82 0 13 8 17 33 17 17 0 37 -4 43 -8z m147
-27 c-1 -16 -2 -41 -3 -55 -1 -14 2 -37 5 -52 10 -38 -9 -36 -25 2 -16 40 -40
39 -40 -1 0 -20 -4 -29 -12 -27 -9 3 -14 32 -16 87 l-3 82 48 -3 c46 -3 48 -4
46 -33z m333 -18 l8 -42 6 45 c3 25 10 44 15 43 14 -4 13 -155 -1 -160 -6 -2
-22 25 -35 59 l-24 63 -3 -63 c-2 -44 -7 -62 -15 -59 -15 5 -10 149 6 159 20
12 36 -4 43 -45z m104 -38 c0 -43 -4 -79 -9 -79 -9 0 -20 158 -12 166 13 13
21 -18 21 -87z m125 76 c0 -5 -12 -11 -26 -13 -22 -3 -28 -9 -31 -36 -5 -41 4
-78 17 -74 10 3 11 10 4 38 -2 8 3 15 11 15 11 0 15 -11 15 -39 0 -34 -3 -40
-23 -41 -39 -3 -52 20 -52 89 0 34 3 66 7 70 11 10 78 3 78 -9z m57 -22 c2
-26 8 -38 18 -38 11 0 15 10 14 38 -1 25 3 37 12 37 11 0 14 -20 14 -85 0 -50
-4 -85 -10 -85 -5 0 -10 16 -10 35 0 28 -4 35 -20 35 -15 0 -20 -7 -20 -29 0
-17 -4 -33 -10 -36 -6 -4 -10 25 -10 79 0 85 16 120 22 49z m138 -32 c0 -38
-3 -76 -6 -85 -12 -32 -24 -3 -24 59 0 50 -3 64 -17 70 -17 7 -16 8 2 15 42
17 45 13 45 -59z m110 60 c0 -5 -9 -13 -20 -16 -17 -5 -20 -15 -20 -63 0 -31
-4 -63 -9 -71 -15 -23 -23 5 -20 71 2 41 -1 63 -9 66 -28 9 -9 22 33 22 25 0
45 -4 45 -9z m-755 -11 c-3 -5 -15 -10 -26 -10 -12 0 -19 -7 -19 -20 0 -13 7
-20 20 -20 11 0 20 -7 20 -15 0 -8 -9 -15 -20 -15 -13 0 -20 -7 -20 -20 0 -13
7 -20 20 -20 11 0 20 -7 20 -16 0 -11 -8 -14 -27 -12 -27 3 -28 5 -31 67 -4
81 0 91 38 91 18 0 29 -4 25 -10z m85 -22 l20 -33 0 33 c0 17 5 32 10 32 11 0
14 -118 4 -144 -8 -20 -24 -11 -24 12 0 10 -9 35 -20 57 l-20 39 0 -58 c0 -73
-23 -74 -28 -1 -6 96 20 124 58 63z m-850 12 c0 -5 -4 -10 -10 -10 -5 0 -10 5
-10 10 0 6 5 10 10 10 6 0 10 -4 10 -10z m1826 -54 c-18 -43 -56 -99 -63 -93
-2 3 7 20 20 40 13 19 30 49 37 66 7 18 15 30 17 27 2 -2 -3 -20 -11 -40z
m271 38 c-3 -3 -12 -4 -19 -1 -8 3 -5 6 6 6 11 1 17 -2 13 -5z m-212 -24 c-3
-5 5 -10 17 -12 l23 -4 -25 -11 c-14 -6 -43 -30 -65 -52 -21 -23 -44 -41 -49
-41 -6 0 8 19 31 43 23 23 45 54 48 69 4 16 11 25 16 22 5 -3 7 -9 4 -14z
m-2059 -24 c3 -24 98 -108 154 -137 25 -13 52 -32 61 -41 9 -10 19 -15 23 -11
3 3 6 1 6 -5 0 -6 7 -9 15 -6 8 4 15 1 15 -6 0 -6 5 -8 10 -5 6 3 10 1 10 -5
0 -6 5 -8 10 -5 6 3 10 1 10 -4 0 -6 3 -10 8 -9 20 6 82 -14 76 -24 -4 -7 -3
-8 4 -4 6 3 64 -8 128 -25 64 -17 151 -35 193 -40 42 -5 96 -12 121 -16 77
-12 435 -9 451 4 14 11 110 32 142 31 9 -1 17 -5 17 -10 0 -13 35 -9 113 11
96 26 210 70 219 84 4 7 8 8 8 2 0 -5 4 -4 9 4 5 8 11 9 15 3 7 -12 -103 -70
-194 -102 -87 -31 -304 -80 -308 -69 -2 4 -96 5 -210 2 -165 -5 -229 -2 -312
11 -58 9 -121 18 -140 21 -19 2 -78 16 -130 30 -52 15 -102 28 -110 30 -8 2
-16 4 -17 5 -2 2 -7 4 -13 5 -5 1 -13 4 -17 5 -5 1 -11 2 -15 1 -5 0 -8 3 -8
7 0 4 -10 8 -22 9 -11 1 -24 6 -27 10 -3 4 -13 9 -21 11 -15 4 -88 36 -183 83
-55 27 -57 29 -32 35 l27 7 -43 43 c-26 27 -52 44 -66 44 -17 0 -23 6 -23 23
0 18 5 23 22 22 12 -1 22 -9 24 -19z m2181 -2 c-3 -3 -12 -4 -19 -1 -8 3 -5 6
6 6 11 1 17 -2 13 -5z m-17 -74 c0 -5 -5 -10 -11 -10 -5 0 -7 5 -4 10 3 6 8
10 11 10 2 0 4 -4 4 -10z"/>
<path d="M2120 5189 c-191 -118 -308 -243 -379 -402 -27 -59 -43 -107 -36
-107 6 0 60 95 60 106 0 16 106 164 117 164 4 0 8 5 8 12 0 25 56 81 151 153
56 41 105 72 110 69 5 -3 19 2 31 10 12 9 17 16 10 16 -7 0 -10 5 -7 10 9 14
7 13 -65 -31z"/>
<path d="M2156 5102 c-68 -56 -174 -178 -163 -188 3 -3 25 21 50 54 25 32 74
83 109 112 88 75 93 80 83 80 -6 -1 -41 -27 -79 -58z"/>
<path d="M3796 5070 c20 -27 38 -50 41 -50 2 0 -5 13 -16 29 -11 15 -17 31
-14 35 7 6 -25 35 -39 36 -5 0 8 -22 28 -50z"/>
<path d="M3865 4963 c45 -116 74 -259 75 -367 0 -45 3 -57 14 -53 15 6 26 -38
26 -113 0 -30 3 -40 9 -31 9 13 5 -219 -4 -264 -2 -11 -10 -48 -18 -82 -8 -35
-13 -63 -11 -63 2 0 10 12 18 28 13 23 15 24 16 7 l1 -20 9 20 c10 23 13 385
4 462 -4 29 -11 50 -15 47 -5 -3 -9 10 -9 30 0 19 -12 83 -26 142 -14 58 -23
115 -21 125 3 11 2 17 -2 15 -4 -3 -18 26 -31 65 -13 38 -28 69 -33 69 -5 0
-6 -8 -2 -17z"/>
<path d="M3941 4873 c11 -34 19 -42 19 -20 0 7 -7 22 -15 33 -13 17 -14 16 -4
-13z"/>
<path d="M3871 4835 c1 -19 18 -51 18 -35 0 8 -4 22 -9 30 -5 8 -9 11 -9 5z"/>
<path d="M1922 4781 c-31 -54 -27 -65 4 -13 14 24 24 45 22 48 -3 2 -14 -14
-26 -35z"/>
<path d="M1922 4728 c-23 -46 -44 -96 -47 -113 -5 -29 -5 -29 6 -5 6 14 29 63
51 109 21 46 37 86 34 88 -2 2 -22 -33 -44 -79z"/>
<path d="M3950 4796 c0 -8 4 -17 9 -20 5 -4 7 3 4 14 -6 23 -13 26 -13 6z"/>
<path d="M3985 4720 c13 -69 35 -216 46 -312 7 -59 13 -107 15 -105 1 1 5 44
9 96 5 68 4 91 -5 86 -7 -4 -9 1 -5 17 4 14 -5 65 -21 119 -26 92 -50 152 -39
99z"/>
<path d="M1840 4660 c-28 -93 -21 -101 9 -9 12 39 20 73 18 76 -3 3 -15 -27
-27 -67z"/>
<path d="M4096 4685 c21 -72 44 -188 50 -248 9 -98 23 -118 17 -26 -5 104 -22
186 -50 244 -13 28 -21 41 -17 30z"/>
<path d="M1676 4615 c-3 -8 -1 -15 4 -15 6 0 10 7 10 15 0 8 -2 15 -4 15 -2 0
-6 -7 -10 -15z"/>
<path d="M4086 4538 c4 -12 6 -164 6 -337 -1 -172 1 -311 4 -308 7 7 19 306
16 427 -3 141 -12 240 -24 240 -5 0 -6 -10 -2 -22z"/>
<path d="M3944 4367 c1 -124 3 -154 15 -154 11 0 13 25 7 146 -4 80 -11 150
-15 154 -5 5 -8 -61 -7 -146z"/>
<path d="M3913 4370 c0 -41 2 -58 4 -37 2 20 2 54 0 75 -2 20 -4 3 -4 -38z"/>
<path d="M1781 4414 c0 -11 3 -14 6 -6 3 7 2 16 -1 19 -3 4 -6 -2 -5 -13z"/>
<path d="M4183 4355 c0 -22 2 -30 4 -17 2 12 2 30 0 40 -3 9 -5 -1 -4 -23z"/>
<path d="M1776 4250 c3 -63 9 -131 14 -150 7 -28 8 -23 3 25 -3 33 -9 101 -14
150 -7 85 -7 83 -3 -25z"/>
<path d="M4043 4200 c0 -36 2 -50 4 -32 2 17 2 47 0 65 -2 17 -4 3 -4 -33z"/>
<path d="M1743 4148 c9 -74 33 -162 64 -233 28 -63 124 -218 131 -210 2 2 -5
17 -16 33 -53 73 -133 281 -152 396 -14 80 -36 91 -27 14z"/>
<path d="M3960 4148 c0 -19 2 -20 10 -8 13 19 13 30 0 30 -5 0 -10 -10 -10
-22z"/>
<path d="M4051 4080 c-3 -16 -6 -34 -10 -65 l-2 -20 -9 20 c-5 12 -9 -122 -9
-322 -1 -223 3 -343 9 -343 6 0 10 26 10 59 0 33 5 61 10 63 7 2 9 110 7 313
-1 171 -4 303 -6 295z m-7 -115 c-4 -8 -8 -15 -10 -15 -2 0 -4 7 -4 15 0 8 4
15 10 15 5 0 7 -7 4 -15z m3 -162 c-2 -21 -4 -6 -4 32 0 39 2 55 4 38 2 -18 2
-50 0 -70z m2 -130 c0 -42 -3 -52 -9 -38 -15 35 -11 95 7 95 2 0 3 -26 2 -57z"/>
<path d="M1801 4044 c0 -11 3 -14 6 -6 3 7 2 16 -1 19 -3 4 -6 -2 -5 -13z"/>
<path d="M1837 3971 c-3 -12 -1 -21 4 -21 5 0 9 -7 9 -15 0 -17 49 -121 73
-156 25 -35 21 -19 -14 49 -17 34 -38 84 -48 113 -14 40 -19 46 -24 30z"/>
<path d="M3955 3941 c-9 -18 -13 -36 -9 -42 3 -5 5 -75 5 -154 -1 -85 2 -146
8 -150 7 -3 11 61 13 182 2 103 2 190 1 191 -1 2 -9 -10 -18 -27z"/>
<path d="M3806 3807 c-36 -76 -84 -145 -151 -215 -57 -62 -73 -84 -51 -76 17
6 129 139 175 207 17 26 38 47 45 47 8 0 13 17 15 50 1 28 1 50 -1 50 -2 0
-16 -28 -32 -63z"/>
<path d="M4103 3730 c0 -25 2 -35 4 -22 2 12 2 32 0 45 -2 12 -4 2 -4 -23z"/>
<path d="M2002 3655 c29 -41 68 -90 88 -108 34 -31 34 -31 9 -2 -14 17 -52 65
-84 108 -31 42 -59 77 -61 77 -2 0 19 -34 48 -75z"/>
<path d="M3756 3653 c-32 -43 -46 -67 -31 -53 34 31 99 119 93 125 -3 3 -31
-30 -62 -72z"/>
<path d="M3830 3703 c0 -21 3 -24 9 -14 5 8 7 20 4 28 -8 21 -13 15 -13 -14z"/>
<path d="M1970 3626 c0 -2 8 -10 18 -17 15 -13 16 -12 3 4 -13 16 -21 21 -21
13z"/>
<path d="M3769 3573 c-17 -26 -42 -59 -55 -73 -12 -14 -32 -51 -44 -83 -18
-47 -39 -76 -109 -145 -217 -216 -466 -281 -805 -212 -49 10 -93 24 -98 31 -7
11 -8 9 -6 -6 8 -51 301 -80 525 -52 141 18 256 61 353 133 68 50 274 273 301
327 23 44 29 108 12 114 -7 3 -13 -3 -13 -12 0 -9 -8 -35 -18 -58 -10 -23 -27
-61 -37 -84 -10 -24 -22 -43 -27 -43 -5 0 -4 9 2 21 7 11 10 23 7 25 -2 2 -16
-17 -30 -43 -31 -57 -100 -132 -177 -195 -71 -58 -150 -111 -156 -105 -3 2 15
16 40 31 71 41 202 172 256 254 27 43 60 90 72 105 22 26 52 106 44 114 -2 3
-19 -17 -37 -44z m-439 -493 c-8 -5 -19 -10 -25 -10 -5 0 -3 5 5 10 8 5 20 10
25 10 6 0 3 -5 -5 -10z"/>
<path d="M2172 3580 c0 -19 2 -27 5 -17 2 9 2 25 0 35 -3 9 -5 1 -5 -18z"/>
<path d="M2075 3530 c17 -19 31 -37 33 -39 1 -2 4 -2 7 1 3 2 -12 20 -33 39
l-37 34 30 -35z"/>
<path d="M3632 3522 c-13 -9 -71 -57 -130 -105 -110 -90 -215 -151 -312 -181
-30 -10 -61 -20 -69 -22 -8 -2 -12 -6 -10 -8 5 -5 98 16 155 34 63 20 251 139
242 153 -4 7 34 47 45 47 5 0 3 -8 -4 -17 -13 -16 -12 -17 3 -5 10 8 16 18 15
23 -1 5 21 29 48 54 51 45 59 58 17 27z"/>
<path d="M3857 3481 c-4 -18 -7 -52 -7 -75 0 -53 -17 -78 -120 -173 -199 -184
-298 -244 -470 -284 -52 -13 -281 -13 -325 0 -21 5 10 9 110 13 172 7 261 29
405 100 95 47 116 63 216 162 98 98 175 198 162 211 -2 3 -23 -21 -45 -53
-140 -197 -321 -325 -534 -377 -184 -45 -376 -43 -532 5 -65 20 -87 15 -87
-20 0 -22 89 -59 228 -96 112 -29 299 -44 335 -26 12 6 51 13 87 15 151 8 329
84 447 192 67 61 121 130 111 141 -3 2 -31 -25 -62 -60 -31 -36 -78 -80 -104
-99 -54 -40 -162 -102 -162 -93 0 3 32 27 72 53 101 66 258 218 258 249 0 14
6 27 14 30 16 6 30 145 18 189 l-8 30 -7 -34z m-93 -262 c-22 -44 -106 -125
-180 -174 -192 -128 -342 -173 -543 -162 -141 8 -345 62 -390 103 -25 23 -7
24 45 4 68 -25 210 -57 319 -70 73 -9 110 -8 190 4 197 30 352 114 514 280 30
31 57 54 59 52 2 -2 -4 -19 -14 -37z m-264 -258 c0 -8 -53 -32 -69 -31 -5 1
59 38 67 40 1 0 2 -4 2 -9z"/>
<path d="M1812 3465 c0 -16 2 -22 5 -12 2 9 2 23 0 30 -3 6 -5 -1 -5 -18z"/>
<path d="M3594 3395 c-82 -97 -162 -168 -216 -192 -46 -20 -51 -38 -6 -18 47
19 160 110 210 169 39 46 95 127 86 126 -2 -1 -35 -39 -74 -85z"/>
<path d="M3963 3333 c1 -79 5 -143 10 -143 10 0 8 240 -3 265 -5 12 -8 -37 -7
-122z"/>
<path d="M1558 3408 c-3 -29 -1 -57 4 -62 4 -6 8 18 8 52 0 76 -7 81 -12 10z"/>
<path d="M1890 3451 c0 -5 5 -13 10 -16 6 -4 8 -11 4 -16 -13 -21 -5 -153 11
-168 20 -20 23 -14 26 42 2 36 -2 51 -17 63 -18 15 -18 15 4 9 12 -4 22 -2 22
4 0 5 2 16 5 24 4 8 -8 25 -30 41 -19 15 -35 23 -35 17z"/>
<path d="M2085 3440 c10 -11 23 -20 28 -20 6 0 2 9 -8 20 -10 11 -23 20 -28
20 -6 0 -2 -9 8 -20z"/>
<path d="M3487 3449 c7 -7 15 -10 18 -7 3 3 -2 9 -12 12 -14 6 -15 5 -6 -5z"/>
<path d="M1811 3414 c0 -11 3 -14 6 -6 3 7 2 16 -1 19 -3 4 -6 -2 -5 -13z"/>
<path d="M2089 3396 l19 -33 -27 4 -26 5 25 -21 c35 -29 40 -26 40 17 0 31 -5
41 -25 50 l-24 11 18 -33z"/>
<path d="M3409 3384 c-26 -19 -59 -36 -75 -38 -16 -3 -58 -14 -94 -26 -36 -12
-72 -24 -80 -27 -12 -4 -11 -7 5 -13 19 -7 19 -7 -2 -14 -12 -4 -39 -4 -60 -1
-30 5 -35 4 -23 -5 12 -9 9 -10 -15 -5 -16 4 -55 8 -85 10 -54 3 -54 3 -10 -4
42 -7 43 -8 11 -9 -19 -1 -63 9 -98 23 -35 14 -69 23 -75 19 -7 -4 -8 -3 -4 4
4 7 3 12 -1 12 -5 0 -40 20 -78 45 -37 25 -70 43 -73 41 -13 -14 14 -39 70
-66 35 -16 52 -27 39 -24 -14 4 -27 1 -32 -7 -8 -11 -12 -11 -23 4 -7 9 -18
17 -25 17 -6 0 -10 5 -9 11 2 6 -3 14 -9 16 -8 3 -13 -3 -13 -14 0 -12 17 -26
48 -42 76 -38 114 -53 108 -42 -4 5 -22 15 -42 21 -19 7 -33 14 -30 17 10 10
75 -19 81 -36 6 -20 68 -37 173 -47 43 -5 62 -3 62 5 0 6 -17 12 -37 12 -21 1
0 5 47 10 47 4 107 15 133 24 61 20 214 108 247 140 33 34 24 30 -31 -11z"/>
<path d="M4312 3400 c0 -14 2 -19 5 -12 2 6 2 18 0 25 -3 6 -5 1 -5 -13z"/>
<path d="M1989 3373 c6 -12 35 -33 63 -47 63 -30 50 -35 -17 -6 -42 18 -46 18
-43 3 3 -16 28 -27 111 -47 48 -12 32 21 -25 50 -29 14 -64 36 -77 48 l-24 21
12 -22z"/>
<path d="M2624 3245 c0 -82 2 -115 3 -72 2 43 2 110 0 150 -1 40 -3 5 -3 -78z"/>
<path d="M3450 3315 c-41 -29 -95 -64 -120 -77 -25 -12 -47 -26 -50 -29 -3 -4
-21 -14 -40 -23 -21 -10 -25 -13 -10 -10 68 17 282 146 305 185 12 19 -12 6
-85 -46z"/>
<path d="M1597 3353 c-4 -3 -7 -13 -7 -22 1 -13 3 -13 11 2 11 19 8 33 -4 20z"/>
<path d="M2650 3216 c0 -9 90 -50 96 -43 2 1 -20 14 -47 29 -28 15 -49 21 -49
14z"/>
<path d="M2650 3180 c0 -5 7 -10 16 -10 8 0 12 5 9 10 -3 6 -10 10 -16 10 -5
0 -9 -4 -9 -10z"/>
<path d="M3301 3181 c-10 -6 -9 -10 5 -15 20 -8 25 -4 16 11 -4 7 -13 9 -21 4z"/>
<path d="M2770 3160 c8 -5 20 -10 25 -10 6 0 3 5 -5 10 -8 5 -19 10 -25 10 -5
0 -3 -5 5 -10z"/>
<path d="M3170 3160 c-9 -6 -10 -10 -3 -10 6 0 15 5 18 10 8 12 4 12 -15 0z"/>
<path d="M3276 3159 c4 -7 0 -9 -13 -5 -22 7 -102 -17 -87 -26 8 -6 112 16
121 26 2 2 -3 6 -12 10 -10 4 -14 2 -9 -5z"/>
<path d="M3824 3127 c-43 -82 -135 -161 -243 -209 -90 -40 -112 -51 -107 -55
2 -2 21 4 42 13 22 9 43 16 48 15 4 -1 13 2 20 8 6 5 34 12 61 16 46 6 53 10
83 56 17 27 36 49 41 49 5 0 19 16 31 34 13 22 26 33 35 30 8 -3 22 -1 32 5
15 9 14 10 -10 7 -33 -6 -33 13 1 30 20 10 20 10 1 22 -16 10 -21 8 -35 -21z"/>
<path d="M2351 3134 c0 -11 3 -14 6 -6 3 7 2 16 -1 19 -3 4 -6 -2 -5 -13z"/>
<path d="M2818 3143 c7 -3 16 -2 19 1 4 3 -2 6 -13 5 -11 0 -14 -3 -6 -6z"/>
<path d="M3118 3143 c7 -3 16 -2 19 1 4 3 -2 6 -13 5 -11 0 -14 -3 -6 -6z"/>
<path d="M2863 3133 c9 -2 25 -2 35 0 9 3 1 5 -18 5 -19 0 -27 -2 -17 -5z"/>
<path d="M2970 3130 l-35 -7 35 -1 c19 0 58 3 85 8 l50 7 -50 0 c-27 0 -66 -3
-85 -7z"/>
<path d="M2650 3125 c0 -5 68 -35 79 -35 8 1 -61 39 -71 40 -5 0 -8 -2 -8 -5z"/>
<path d="M3811 4400 c-1 -74 -3 -153 -6 -175 -5 -38 -4 -38 5 -10 16 45 24
244 12 285 -8 28 -10 9 -11 -100z"/>
<path d="M3781 4124 c0 -11 3 -14 6 -6 3 7 2 16 -1 19 -3 4 -6 -2 -5 -13z"/>
<path d="M3752 4035 c-17 -37 -14 -45 4 -12 9 16 14 31 11 33 -2 2 -9 -7 -15
-21z"/>
<path d="M3489 3801 c-1 -3 -1 -9 -1 -13 2 -10 -25 -29 -45 -32 -10 -2 -18 -7
-18 -12 0 -5 -4 -16 -9 -23 -13 -21 43 21 77 56 20 21 23 30 12 30 -8 0 -16
-3 -16 -6z"/>
<path d="M3377 3734 c-15 -13 -24 -24 -20 -24 11 1 57 40 52 44 -2 3 -17 -7
-32 -20z"/>
<path d="M3290 3690 c-19 -11 -30 -19 -25 -19 6 0 26 8 45 19 19 11 31 19 25
19 -5 0 -26 -8 -45 -19z"/>
<path d="M2280 2510 c0 -28 3 -31 28 -28 21 2 27 8 27 28 0 20 -6 26 -27 28
-25 3 -28 0 -28 -28z"/>
<path d="M2462 2508 c-19 -24 -27 -78 -11 -78 31 0 40 16 32 55 -7 31 -10 35
-21 23z"/>
<path d="M2610 2502 c0 -38 9 -46 32 -25 22 20 23 39 2 47 -28 11 -34 7 -34
-22z"/>
<path d="M2747 2523 c-13 -12 -7 -53 7 -53 20 0 39 27 32 45 -6 15 -28 20 -39
8z"/>
<path d="M5369 5464 c-9 -11 -13 -47 -12 -122 2 -158 2 -159 17 -174 11 -12
11 -17 0 -33 -9 -12 -14 -46 -14 -95 0 -89 14 -110 73 -110 l37 0 0 -58 c0
-79 12 -92 88 -99 77 -7 69 -21 -13 -25 l-60 -3 -5 -40 c-5 -40 -5 -40 -52
-43 -33 -2 -51 -9 -57 -20 -9 -17 -14 -187 -12 -389 1 -87 4 -115 17 -127 23
-23 282 -24 290 -1 4 8 1 22 -6 30 -10 12 -9 15 7 15 10 0 28 7 39 15 19 14
19 15 -3 21 -23 6 -23 8 -23 185 l0 179 173 0 c185 0 245 10 346 55 33 15 72
25 101 25 80 0 150 63 210 192 40 85 37 102 -15 106 -102 6 -132 22 -80 42 23
9 25 15 25 68 0 99 -21 147 -105 238 -85 93 -168 141 -292 168 -106 24 -654
24 -674 0z m656 -284 c33 -16 66 -30 72 -30 19 0 26 -44 21 -120 -6 -80 6
-100 61 -100 l32 0 -20 -29 c-35 -49 -89 -64 -250 -69 -159 -5 -161 -4 -161
59 0 45 -15 59 -62 59 l-38 0 0 130 0 130 143 0 c138 0 144 -1 202 -30z"/>
<path d="M6850 5438 c-11 -24 -20 -60 -20 -81 0 -38 -22 -81 -61 -119 -9 -9
-38 -79 -63 -154 -50 -149 -49 -154 11 -154 17 0 34 -3 37 -8 2 -4 -4 -34 -15
-66 -11 -32 -18 -65 -15 -73 3 -8 -1 -24 -9 -36 -8 -12 -15 -29 -15 -37 0 -30
-43 -60 -86 -60 -21 0 -44 -4 -51 -8 -7 -4 -24 -46 -39 -92 -15 -47 -37 -96
-49 -110 -32 -36 -118 -299 -103 -317 8 -10 43 -13 152 -11 134 3 141 4 152
25 6 13 18 31 27 41 10 10 17 27 17 38 1 37 27 116 41 125 15 9 468 13 493 3
8 -3 28 -48 46 -105 18 -55 38 -106 47 -114 22 -23 541 -22 549 0 4 8 1 22 -6
30 -10 12 -9 15 7 15 10 0 28 7 39 15 19 14 19 15 -3 21 -23 6 -23 8 -23 185
l0 179 173 0 c185 0 245 10 346 55 33 15 72 25 101 25 53 0 109 33 153 92 28
36 87 156 87 176 0 6 7 12 15 12 11 0 15 -12 15 -49 0 -70 13 -98 49 -106 32
-7 34 -25 3 -25 -9 0 -23 -4 -31 -9 -12 -8 -13 -12 -1 -25 20 -25 -13 -56 -59
-56 -20 0 -41 -4 -47 -8 -6 -4 -14 -58 -19 -122 -9 -144 -9 -131 -3 -279 4
-88 10 -126 19 -132 20 -13 886 -11 910 1 16 9 19 22 19 88 0 43 -5 83 -11 89
-8 8 -7 16 2 31 10 17 10 23 0 36 -11 14 -56 16 -320 18 l-306 3 -5 107 c-4
81 -2 109 8 113 6 2 12 11 12 19 0 9 15 17 40 21 24 4 44 14 50 26 10 18 25
19 265 19 217 0 256 2 269 16 20 20 23 201 4 227 -11 14 -46 17 -283 20 -148
3 -290 8 -315 13 l-45 9 2 50 c2 75 2 106 0 145 l-2 35 305 2 c273 3 306 5
318 20 14 19 17 220 4 241 -7 10 -107 12 -468 10 l-459 -3 -8 -145 c-7 -140
-7 -146 14 -162 18 -15 19 -19 5 -24 -13 -5 -16 -23 -16 -100 0 -101 -1 -103
-57 -88 -30 8 -29 22 2 34 23 9 25 15 25 68 0 99 -21 147 -105 238 -85 93
-168 141 -292 168 -106 24 -654 24 -674 0 -9 -11 -13 -47 -12 -122 2 -158 2
-159 17 -174 11 -12 11 -17 0 -33 -9 -12 -14 -46 -14 -95 0 -89 14 -110 73
-110 l37 0 0 -58 c0 -79 12 -92 88 -99 77 -7 69 -21 -13 -25 l-60 -3 -5 -40
c-5 -39 -6 -40 -50 -43 -64 -4 -70 -17 -71 -146 0 -61 -4 -120 -9 -131 -8 -18
-9 -17 -9 7 -1 16 -9 32 -20 37 -23 13 -41 61 -41 111 0 24 -7 43 -20 55 -30
27 -25 45 11 45 17 0 39 4 49 10 17 9 15 17 -27 137 -24 70 -49 133 -55 140
-6 7 -29 13 -52 13 -57 0 -86 22 -86 65 0 41 -32 129 -76 210 -18 33 -44 96
-59 140 -42 131 -33 125 -191 125 l-135 0 -19 -42z m1405 -258 c33 -16 66 -30
72 -30 19 0 26 -44 21 -120 -6 -80 6 -100 61 -100 l32 0 -20 -29 c-35 -49 -89
-64 -250 -69 -159 -5 -161 -4 -161 59 0 45 -15 59 -62 59 l-38 0 0 130 0 130
143 0 c138 0 144 -1 202 -30z m-1220 -152 c22 -75 44 -98 96 -98 41 0 57 -19
73 -85 4 -16 16 -49 27 -73 12 -25 19 -59 17 -80 -3 -32 -7 -38 -33 -42 -16
-3 -41 -12 -55 -21 -18 -12 -58 -18 -138 -22 -104 -5 -113 -4 -122 14 -10 17
-7 19 23 19 43 0 57 16 80 94 61 201 61 206 -3 206 -22 0 -40 3 -40 7 0 16 45
143 50 143 4 0 15 -28 25 -62z"/>
<path d="M9747 5474 c-11 -12 -8 -302 3 -309 7 -4 7 -12 0 -25 -14 -27 -13
-183 2 -198 7 -7 29 -12 50 -12 l38 0 0 -63 c0 -36 5 -68 12 -75 7 -7 40 -12
80 -12 39 0 68 -4 68 -10 0 -6 -28 -10 -62 -10 -77 0 -89 -7 -97 -56 -6 -38
-8 -39 -51 -44 l-45 -5 -7 -125 c-8 -148 -8 -135 -2 -280 3 -63 10 -120 16
-127 7 -9 47 -13 138 -13 136 0 158 8 145 49 -4 15 -1 20 16 23 29 4 35 24 9
31 -19 5 -20 12 -20 178 l0 173 27 23 c30 26 75 30 93 8 7 -9 29 -15 52 -15
l39 0 40 -87 c60 -131 60 -132 87 -149 13 -9 37 -44 53 -77 16 -34 36 -75 45
-92 9 -16 20 -37 24 -45 6 -12 34 -16 141 -18 153 -3 179 1 179 27 0 30 -70
161 -86 161 -9 0 -14 8 -13 18 4 39 -3 54 -42 93 -25 25 -57 76 -83 133 l-44
94 39 5 c25 3 53 17 78 39 21 18 58 50 83 70 50 41 116 154 105 181 -5 12 -18
17 -47 17 -23 0 -50 5 -61 10 -22 12 -26 40 -5 40 19 0 36 52 36 110 0 36 -10
67 -37 121 -52 99 -114 161 -210 207 l-78 37 -350 3 c-193 1 -354 0 -358 -4z
m640 -291 c51 -23 65 -34 74 -61 12 -38 4 -106 -16 -122 -27 -22 9 -70 52 -70
29 0 29 -10 -1 -32 -33 -24 -136 -40 -241 -36 l-90 3 -3 32 c-4 41 -17 51 -72
55 l-45 3 -3 114 c-1 63 0 121 2 128 4 10 39 13 143 13 129 0 142 -2 200 -27z"/>
<path d="M9170 3596 c-101 -22 -188 -72 -270 -155 -41 -42 -84 -81 -95 -86
-13 -7 -21 -23 -23 -43 -2 -19 -12 -42 -23 -53 -10 -10 -19 -25 -19 -31 -1 -7
-7 -38 -14 -69 -8 -31 -10 -62 -6 -68 4 -7 29 -15 56 -19 l48 -7 1 -65 c0 -58
2 -65 25 -77 14 -7 58 -13 98 -13 41 0 72 -4 72 -10 0 -6 -36 -10 -89 -10 -95
0 -118 -11 -108 -50 7 -26 -9 -37 -60 -42 l-43 -4 0 60 c0 41 -5 65 -17 78
-15 17 -15 19 1 37 11 12 16 31 14 53 -3 30 -7 34 -48 44 l-45 11 -3 248 c-1
163 -6 253 -13 262 -9 10 -54 13 -194 13 -161 0 -184 -2 -197 -17 -9 -10 -28
-58 -43 -107 -14 -49 -36 -101 -47 -116 -18 -25 -98 -250 -98 -277 0 -17 33
-33 65 -33 25 0 26 -2 20 -32 -4 -18 -14 -48 -21 -67 -8 -18 -14 -43 -14 -55
0 -11 -10 -41 -23 -66 -22 -44 -23 -45 -75 -48 -42 -2 -52 0 -52 13 0 20 -23
96 -57 188 -27 73 -43 87 -97 87 -41 0 -52 16 -81 114 -9 33 -32 90 -51 128
-19 37 -34 72 -34 77 0 5 11 12 25 15 44 11 28 47 -27 61 -21 5 -30 17 -42 53
-29 83 -26 82 -226 82 -136 0 -180 -3 -189 -13 -7 -9 -11 -95 -10 -265 0 -282
-2 -272 73 -272 l36 0 0 -64 c0 -89 11 -96 153 -96 141 0 147 3 147 85 0 63
14 91 31 64 18 -29 89 -241 83 -250 -3 -5 -20 -9 -38 -9 -33 0 -66 -25 -66
-50 0 -8 8 -23 19 -34 10 -12 33 -64 50 -116 18 -52 40 -103 49 -113 14 -15
55 -112 65 -151 1 -5 -8 -12 -21 -15 -32 -8 -32 -23 0 -32 15 -4 37 -14 50
-23 16 -11 45 -16 100 -16 82 0 128 14 128 38 0 29 52 167 74 197 13 17 40 82
61 145 56 174 48 160 100 160 60 0 71 14 112 146 36 114 46 134 71 134 13 0
14 -17 8 -127 -4 -70 -9 -130 -12 -135 -3 -4 -22 -8 -43 -8 -21 0 -43 -6 -49
-12 -11 -14 -29 -213 -24 -267 2 -19 -2 -45 -9 -58 -10 -18 -10 -26 -1 -35 7
-7 12 -42 12 -83 0 -42 5 -76 12 -83 8 -8 55 -12 144 -12 168 0 164 -4 164
135 0 57 4 107 10 110 6 4 6 12 0 23 -19 34 -26 87 -17 126 7 27 7 44 -1 57
-9 14 -8 26 3 53 14 33 19 36 55 36 37 0 40 -2 48 -37 27 -109 42 -180 42
-201 0 -17 10 -27 38 -40 21 -9 65 -46 97 -82 32 -36 73 -72 91 -80 18 -8 35
-22 37 -30 5 -20 159 -60 257 -67 84 -6 207 16 250 45 14 9 42 25 64 34 54 25
108 70 141 118 15 22 43 49 61 61 25 15 34 28 34 48 0 15 5 32 11 38 11 11 38
98 47 157 7 42 18 51 41 37 13 -9 46 -132 58 -220 5 -38 10 -45 43 -60 20 -9
63 -45 95 -81 32 -36 73 -72 91 -80 18 -8 35 -22 37 -30 5 -20 159 -60 257
-67 84 -6 207 16 250 45 14 9 42 25 64 34 54 25 108 70 141 118 15 22 43 49
61 61 25 15 34 28 34 48 0 15 5 32 11 38 11 11 38 98 48 158 6 36 9 40 32 37
14 -1 41 8 60 21 l34 23 -4 120 -3 119 46 -3 46 -4 0 -63 c0 -80 10 -89 106
-93 98 -5 95 -22 -4 -22 -88 0 -102 -8 -102 -57 0 -31 -2 -33 -36 -33 -70 0
-74 -7 -74 -133 0 -107 -1 -113 -22 -122 -33 -14 -35 -42 -4 -56 25 -12 26
-14 26 -115 0 -93 2 -104 20 -114 12 -6 72 -9 152 -8 l133 3 3 28 c2 15 7 27
11 27 4 0 16 6 27 14 18 14 18 15 -8 25 l-28 11 0 189 c0 142 3 191 13 194 9
4 8 8 -3 16 -23 15 -2 29 50 33 l45 3 5 135 c4 111 8 135 20 135 8 0 22 -14
31 -32 9 -17 23 -43 32 -57 10 -14 17 -30 17 -35 0 -5 16 -33 35 -62 19 -30
35 -59 35 -65 0 -6 -23 -14 -50 -18 -52 -7 -95 -36 -87 -59 2 -7 20 -13 40
-15 42 -4 53 -17 118 -141 34 -65 50 -87 75 -97 23 -10 40 -31 68 -84 20 -38
41 -70 46 -70 6 0 18 -17 27 -37 l18 -38 133 -3 c83 -2 140 2 153 8 20 11 20
17 15 220 -2 114 -2 211 2 214 3 4 5 27 3 51 l-3 45 35 0 c68 0 67 -2 67 150
0 134 -1 138 -22 144 -13 3 -35 6 -50 6 -14 0 -33 3 -42 6 -14 5 -14 9 -1 34
20 38 22 459 3 478 -14 14 -275 17 -295 4 -16 -10 -20 -509 -4 -525 6 -6 32
-14 59 -17 l47 -5 3 -77 c2 -52 7 -80 17 -88 8 -7 15 -16 15 -21 0 -15 -19
-10 -39 10 -11 11 -35 23 -54 26 -30 6 -40 17 -81 85 -47 80 -61 90 -122 90
-39 0 -47 11 -118 140 -68 126 -76 137 -100 141 -10 2 -24 12 -30 22 -9 16 -7
22 12 34 12 9 22 21 22 29 0 17 -32 34 -63 34 -20 0 -32 12 -56 55 -17 30 -39
59 -50 65 -21 11 -258 14 -285 4 -14 -5 -16 -28 -16 -153 0 -101 4 -151 12
-159 9 -9 9 -15 0 -24 -7 -7 -12 -43 -12 -90 l0 -78 -47 0 c-59 0 -79 11 -66
35 12 21 1 81 -31 162 -16 43 -28 59 -44 61 -13 2 -35 22 -52 47 -139 201
-454 273 -697 159 -60 -29 -95 -54 -153 -113 -41 -42 -84 -81 -95 -86 -13 -7
-21 -23 -23 -45 -2 -19 -10 -39 -18 -45 -15 -10 -42 -99 -46 -149 -2 -21 -8
-26 -28 -26 -37 0 -54 14 -43 35 12 21 1 81 -31 162 -16 43 -28 59 -44 61 -13
2 -35 22 -52 47 -41 59 -131 132 -207 167 -101 45 -257 60 -373 34z m255 -286
c31 -16 67 -30 80 -30 18 0 27 -11 44 -49 11 -27 21 -67 21 -89 0 -48 16 -63
75 -70 l45 -5 0 -64 c0 -37 6 -76 15 -93 13 -25 13 -32 0 -57 -8 -15 -15 -34
-15 -40 0 -9 -16 -13 -44 -13 -55 0 -76 -19 -76 -67 0 -63 -31 -144 -60 -156
-14 -6 -54 -24 -89 -41 -87 -41 -149 -40 -231 3 -33 17 -68 31 -78 31 -9 0
-22 8 -29 19 -21 34 -63 170 -57 186 4 10 20 15 49 15 24 0 47 5 50 10 9 15 8
271 -2 281 -4 4 -26 9 -48 11 -39 3 -40 4 -37 38 5 67 32 131 61 142 14 6 39
17 55 26 96 50 190 55 271 12z m1230 0 c31 -16 67 -30 80 -30 18 0 27 -11 44
-49 11 -27 21 -67 21 -89 0 -48 16 -63 75 -70 l45 -5 0 -64 c0 -37 6 -76 15
-93 13 -25 13 -32 0 -57 -8 -15 -15 -34 -15 -40 0 -9 -16 -13 -44 -13 -55 0
-76 -19 -76 -67 0 -63 -31 -144 -60 -156 -14 -6 -54 -24 -89 -41 -87 -41 -149
-40 -231 3 -33 17 -68 31 -78 31 -9 0 -22 8 -29 19 -21 34 -63 170 -57 186 4
10 20 15 49 15 24 0 47 5 50 10 9 15 8 271 -2 281 -4 4 -26 9 -48 11 -39 3
-40 4 -37 38 5 67 32 131 61 142 14 6 39 17 55 26 96 50 190 55 271 12z
m-3199 -214 c5 -22 4 -28 -7 -24 -8 2 -15 20 -17 39 -4 40 13 30 24 -15z
m2599 -96 c0 -58 2 -65 25 -77 14 -7 58 -13 98 -13 41 0 72 -4 72 -10 0 -6
-36 -10 -89 -10 -93 0 -116 -10 -109 -47 4 -26 -10 -43 -35 -43 -15 0 -18 3
-10 11 7 7 9 52 5 136 l-5 125 24 -4 c22 -3 23 -7 24 -68z m2115 -189 c0 -26
-17 -36 -35 -21 -23 19 -18 40 10 40 18 0 25 -5 25 -19z m-4250 -44 c0 -8 -33
-113 -37 -121 -3 -5 -12 5 -19 22 -9 22 -22 34 -45 39 -45 12 -45 25 -1 45 32
14 102 24 102 15z"/>
<path d="M7262 2858 c-6 -7 -12 -26 -14 -43 -3 -27 -7 -30 -45 -33 -23 -2 -47
-9 -53 -17 -17 -20 -15 -515 2 -526 15 -10 242 -12 275 -3 23 6 23 7 25 268
l3 261 40 3 c42 3 111 49 88 58 -6 3 -21 14 -34 25 -19 17 -38 19 -149 19 -90
0 -131 -4 -138 -12z"/>
</g>
</svg>
